<svg xmlns="http://www.w3.org/2000/svg" width="1200" height="800" viewBox="0 0 1200 800" role="img" aria-label="dessert-1">
  <defs>
    <filter id="b" x="-60%" y="-60%" width="220%" height="220%"><feGaussianBlur stdDeviation="30"/></filter>
    
    <linearGradient id="bg" x1="0" y1="0" x2="1" y2="1"><stop offset="0" stop-color="#17140f"/><stop offset="1" stop-color="#111111"/></linearGradient>
    <radialGradient id="vig" cx="50%" cy="46%" r="75%"><stop offset="0%" stop-color="transparent"/><stop offset="78%" stop-color="transparent"/><stop offset="100%" stop-color="rgba(0,0,0,0.55)"/></radialGradient>
  </defs>
  <rect width="100%" height="100%" fill="url(#bg)"/>
  <ellipse cx="600" cy="510" rx="300" ry="70" fill="#1a140d" filter="url(#b)"/><rect x="450" y="430" width="300" height="120" rx="14" fill="#e9dcc4"/><rect x="450" y="370" width="300" height="62" rx="14" fill="#2d6a4f"/><path d="M 450 432 q 300 30 300 10 l 0 28 l -300 0 z" fill="#fff" opacity="0.85"/><circle cx="600" cy="350" r="26" fill="#f0d9a8"/><circle cx="510" cy="352" r="14" fill="#40916c"/><circle cx="700" cy="358" r="12" fill="#a8794a"/><circle cx="557" cy="340" r="2" fill="#fff" opacity="0.474422204042274"/><circle cx="474" cy="335" r="2" fill="#fff" opacity="0.3128832728508801"/><circle cx="723" cy="302" r="2" fill="#fff" opacity="0.4840475784825188"/><circle cx="593" cy="334" r="4" fill="#fff" opacity="0.6537451253678448"/><circle cx="568" cy="318" r="2" fill="#fff" opacity="0.5887301867653641"/><circle cx="537" cy="326" r="3" fill="#fff" opacity="0.6765507283670031"/><circle cx="647" cy="322" r="3" fill="#fff" opacity="0.6755297675934661"/><circle cx="492" cy="317" r="3" fill="#fff" opacity="0.5506149477430473"/><circle cx="735" cy="310" r="4" fill="#fff" opacity="0.4215765929560467"/><circle cx="707" cy="325" r="2" fill="#fff" opacity="0.5586473026607621"/><circle cx="644" cy="328" r="2" fill="#fff" opacity="0.34271496124213535"/><circle cx="613" cy="316" r="3" fill="#fff" opacity="0.34770955134858356"/><circle cx="558" cy="320" r="3" fill="#fff" opacity="0.48967116282027645"/><circle cx="715" cy="318" r="2" fill="#fff" opacity="0.5321649459957372"/><circle cx="465" cy="305" r="4" fill="#fff" opacity="0.6256736836860826"/><circle cx="588" cy="333" r="3" fill="#fff" opacity="0.4604578923942616"/><circle cx="619" cy="303" r="3" fill="#fff" opacity="0.40098766347005754"/><circle cx="460" cy="328" r="2" fill="#fff" opacity="0.3391194662877719"/>
  <rect width="100%" height="100%" fill="url(#vig)" filter="url(#g)"/>
</svg>