<svg xmlns="http://www.w3.org/2000/svg" width="1200" height="800" viewBox="0 0 1200 800" role="img" aria-label="food-2">
  <defs>
    <filter id="b" x="-60%" y="-60%" width="220%" height="220%"><feGaussianBlur stdDeviation="39"/></filter>
    
    <linearGradient id="bg" x1="0" y1="0" x2="1" y2="1"><stop offset="0" stop-color="#111111"/><stop offset="1" stop-color="#0e0c09"/></linearGradient>
    <radialGradient id="vig" cx="50%" cy="46%" r="75%"><stop offset="0%" stop-color="transparent"/><stop offset="78%" stop-color="transparent"/><stop offset="100%" stop-color="rgba(0,0,0,0.55)"/></radialGradient>
  </defs>
  <rect width="100%" height="100%" fill="url(#bg)"/>
  <ellipse cx="600" cy="470" rx="330" ry="80" fill="#1a140d" filter="url(#b)"/><ellipse cx="600" cy="440" rx="330" ry="90" fill="#efe9dd"/><ellipse cx="600" cy="440" rx="300" ry="76" fill="#f8f4ec"/><ellipse cx="600" cy="440" rx="230" ry="58" fill="none" stroke="#f0d9a8" stroke-width="3" opacity="0.5"/><circle cx="628" cy="468" r="27" fill="#52b788" opacity="0.6187604404223987"/><circle cx="505" cy="429" r="10" fill="#f0d9a8" opacity="0.9"/><circle cx="583" cy="471" r="40" fill="#2d6a4f" opacity="0.82824467206796"/><circle cx="617" cy="465" r="10" fill="#f0d9a8" opacity="0.9"/><circle cx="701" cy="460" r="26" fill="#40916c" opacity="0.7246013615848732"/><circle cx="674" cy="449" r="10" fill="#f0d9a8" opacity="0.9"/><circle cx="759" cy="474" r="29" fill="#52b788" opacity="0.9122715447322278"/><circle cx="551" cy="420" r="10" fill="#f0d9a8" opacity="0.9"/><circle cx="446" cy="423" r="37" fill="#40916c" opacity="0.8414939669007687"/><circle cx="525" cy="425" r="10" fill="#f0d9a8" opacity="0.9"/>
  <rect width="100%" height="100%" fill="url(#vig)" filter="url(#g)"/>
</svg>