<svg xmlns="http://www.w3.org/2000/svg" width="1200" height="800" viewBox="0 0 1200 800" role="img" aria-label="cocktail-1">
  <defs>
    <filter id="b" x="-60%" y="-60%" width="220%" height="220%"><feGaussianBlur stdDeviation="27"/></filter>
    
    <linearGradient id="bg" x1="0" y1="0" x2="1" y2="1"><stop offset="0" stop-color="#111111"/><stop offset="1" stop-color="#1e1e1e"/></linearGradient>
    <radialGradient id="vig" cx="50%" cy="46%" r="75%"><stop offset="0%" stop-color="transparent"/><stop offset="78%" stop-color="transparent"/><stop offset="100%" stop-color="rgba(0,0,0,0.55)"/></radialGradient>
  </defs>
  <rect width="100%" height="100%" fill="url(#bg)"/>
  <ellipse cx="600" cy="480" rx="300" ry="90" fill="#201a13" filter="url(#b)"/><path d="M 450 310 q 0 150 150 210 q 150 -60 150 -210 z" fill="rgba(231,196,138,0.28)"/><path d="M 450 310 q 0 150 150 210 q 150 -60 150 -210 z" fill="none" stroke="#8a5f31" stroke-width="6"/><path d="M 450 310 q 0 150 150 210" fill="none" stroke="#ffffff" stroke-width="3" opacity="0.5"/><line x1="600" y1="520" x2="600" y2="680" stroke="#8a5f31" stroke-width="10"/><circle cx="600" cy="760" r="40" fill="#8a5f31"/><circle cx="540" cy="310" r="70" fill="#f0d9a8" opacity="0.9"/><path d="M 560 340 l -30 -60 14 -20 40 50 z" fill="#2d6a4f"/><circle cx="560" cy="285" r="16" fill="#8a5f31" opacity="0.7"/><circle cx="666" cy="405" r="5" fill="#fff" opacity="0.2736580840738488"/><circle cx="633" cy="504" r="4" fill="#fff" opacity="0.5489512881571869"/><circle cx="518" cy="492" r="4" fill="#fff" opacity="0.49787823866246583"/><circle cx="591" cy="459" r="2" fill="#fff" opacity="0.20964047673624317"/><circle cx="719" cy="549" r="3" fill="#fff" opacity="0.42608053043290106"/><circle cx="580" cy="538" r="5" fill="#fff" opacity="0.2802837575697572"/><circle cx="633" cy="490" r="5" fill="#fff" opacity="0.43392826075859764"/><circle cx="490" cy="351" r="4" fill="#fff" opacity="0.3141609168095288"/><circle cx="491" cy="346" r="3" fill="#fff" opacity="0.2523735227897779"/><circle cx="536" cy="566" r="4" fill="#fff" opacity="0.21944499967913977"/><circle cx="686" cy="411" r="3" fill="#fff" opacity="0.27758767383512234"/><circle cx="531" cy="585" r="5" fill="#fff" opacity="0.3437680909385251"/><circle cx="650" cy="546" r="4" fill="#fff" opacity="0.3010259775734895"/><circle cx="497" cy="385" r="4" fill="#fff" opacity="0.47873020124045224"/>
  <rect width="100%" height="100%" fill="url(#vig)" filter="url(#g)"/>
</svg>